<svg width="142" height="63" viewBox="0 0 142 63" fill="none" xmlns="http://www.w3.org/2000/svg">
<g clip-path="url(#clip0_584_3584)">
<path d="M119.148 14.6162L93.918 0.0493164L99.1125 14.6162L93.918 29.1831L119.148 14.6162Z" fill="#E8E6E3"/>
<path d="M1.2588 4.33453C1.82409 3.3478 2.64692 2.52496 3.72732 1.86602C4.80436 1.20708 6.12224 0.73211 7.6776 0.441107C9.23296 0.150104 11.0158 0.00292969 13.026 0.00292969C17.6687 0.00292969 21.1072 0.799008 23.3383 2.38782C25.5693 3.97997 26.6831 6.56556 26.6831 10.1513H21.9635C21.9635 9.05414 21.7428 8.14099 21.3046 7.40846C20.8664 6.67594 20.2342 6.10062 19.4114 5.67917C18.5886 5.25771 17.5817 4.95668 16.3943 4.77271C15.2069 4.58874 13.8255 4.49843 12.2534 4.49843C10.6813 4.49843 9.53735 4.59877 8.60413 4.79947C7.67091 5.00016 6.93839 5.25771 6.4099 5.56879C5.87806 5.87986 5.52351 6.23776 5.33954 6.63914C5.15557 7.04053 5.06526 7.44525 5.06526 7.84664C5.06526 8.28482 5.21913 8.70627 5.5302 9.10765C5.84127 9.50904 6.343 9.88366 7.03873 10.2315C7.73446 10.5794 8.65765 10.9273 9.80828 11.2751C10.9589 11.623 12.3771 11.9608 14.0596 12.2886C16.0699 12.6532 17.8728 13.0211 19.4616 13.3857C21.0537 13.7503 22.405 14.2353 23.5222 14.8408C24.6361 15.4428 25.4957 16.2322 26.1011 17.1989C26.7032 18.1689 27.0076 19.4399 27.0076 21.012C27.0076 23.9388 25.9372 26.0126 23.7999 27.2402C21.6591 28.4644 18.5417 29.0765 14.4476 29.0765C9.51059 29.0765 5.9182 28.2804 3.66711 26.6916C1.4227 25.0995 0.298828 22.5105 0.298828 18.9248H5.07195C5.07195 19.9852 5.30944 20.8816 5.78441 21.6141C6.25938 22.3466 6.93504 22.932 7.81474 23.3702C8.6911 23.8083 9.74473 24.1194 10.9689 24.3034C12.1932 24.4873 13.5378 24.5777 15.0029 24.5777C16.3542 24.5777 17.4981 24.494 18.4313 24.3301C19.3646 24.1662 20.1238 23.9388 20.7092 23.6444C21.2945 23.3534 21.716 22.9855 21.9702 22.5473C22.2244 22.1091 22.3549 21.6509 22.3549 21.1759C22.3549 20.4066 22.1441 19.8045 21.7227 19.3664C21.3012 18.9282 20.6891 18.5703 19.8864 18.296C19.0802 18.0217 18.0935 17.7842 16.9228 17.5835C15.7521 17.3829 14.3807 17.1353 12.8086 16.8443C11.3101 16.5901 9.82835 16.259 8.3633 15.8576C6.90159 15.4562 5.57368 14.9244 4.38625 14.2654C3.19883 13.6065 2.23551 12.7669 1.50632 11.7434C0.773799 10.7199 0.409209 9.4388 0.409209 7.9035C0.409209 6.51538 0.693522 5.32461 1.2588 4.33788V4.33453Z" fill="#E8E6E3"/>
<path d="M58.9142 16.1989H53.8132V13.8408C53.8132 12.1583 53.5925 10.7234 53.1543 9.53594C52.7161 8.34851 52.104 7.38854 51.318 6.65601C50.5319 5.92683 49.582 5.395 48.4681 5.0672C47.3543 4.7394 46.12 4.57216 44.7654 4.57216C43.4107 4.57216 42.2333 4.78289 41.1195 5.20099C40.0056 5.62245 39.0356 6.25128 38.2128 7.09419C37.3899 7.93709 36.7511 8.97735 36.2928 10.2183C35.8346 11.4626 35.6071 12.9243 35.6071 14.6034C35.6071 16.4665 35.8346 18.0386 36.2928 19.3197C36.7511 20.6008 37.3966 21.631 38.2395 22.417C39.0791 23.2031 40.1127 23.7683 41.3369 24.1162C42.5611 24.4641 43.9593 24.638 45.5313 24.638C46.7388 24.638 47.8527 24.4908 48.8762 24.1998C49.8997 23.9088 50.7761 23.4974 51.5086 22.9656C52.2378 22.4371 52.8165 21.8317 53.2346 21.156C53.6527 20.4803 53.8634 19.7411 53.8634 18.935L58.5797 18.9885C58.5797 22.0223 57.4658 24.4708 55.2348 26.3372C53.0038 28.2003 49.7526 29.1335 45.4745 29.1335C40.32 29.1335 36.4902 27.8993 33.9882 25.4307C31.4829 22.9622 30.2319 19.3364 30.2319 14.5465C30.2319 9.7567 31.4562 6.28473 33.9046 3.7995C36.3597 1.32095 39.8886 0.0766602 44.4944 0.0766602C49.6857 0.0766602 53.3851 1.35774 55.5994 3.91657C57.8104 6.47539 58.9175 10.2049 58.9175 15.1018V16.1989H58.9142ZM32.8142 12.1951H56.3921V16.1989H32.8142V12.1951Z" fill="#E8E6E3"/>
<path d="M62.4731 29.1299V0.912657H67.7212V29.1333H62.4731V29.1299ZM85.4423 29.1299V13.6098C85.4423 12.2919 85.3186 11.1178 85.0744 10.0809C84.8302 9.04737 84.3987 8.15429 83.7766 7.4017C83.1544 6.6491 82.2982 6.06709 81.2077 5.65233C80.1173 5.23757 78.7058 5.03019 76.9765 5.03019C73.9293 5.03019 71.6247 5.8664 70.0626 7.54218C68.5006 9.21796 67.7212 11.6898 67.7212 14.9644V15.5866H65.5772V15.0213C65.5772 12.8003 65.7745 10.77 66.1692 8.92695C66.5639 7.08393 67.2496 5.50516 68.2297 4.18728C69.2064 2.8694 70.5142 1.85591 72.1532 1.14011C73.7888 0.424307 75.8125 0.0664062 78.2208 0.0664062C80.3648 0.0664062 82.2179 0.320616 83.7799 0.829036C85.342 1.33746 86.6398 2.12684 87.6734 3.20055C88.7069 4.27425 89.4696 5.64564 89.9579 7.32142C90.4463 8.9972 90.6904 10.9807 90.6904 13.2753V29.1333H85.4423V29.1299Z" fill="#E8E6E3"/>
<path d="M30.2388 62.7798V34.4889H35.5002V62.7798H30.2388ZM53.2682 62.7798V47.2195C53.2682 45.8982 53.1444 44.7208 52.9002 43.6839C52.6561 42.647 52.2212 41.7506 51.5991 40.998C50.9769 40.2454 50.1173 39.6601 49.0235 39.2453C47.9298 38.8305 46.5149 38.6232 44.7789 38.6232C41.725 38.6232 39.4137 39.4627 37.8483 41.1418C36.2829 42.821 35.5002 45.2995 35.5002 48.5808V49.203H33.3495V48.6377C33.3495 46.4134 33.5468 44.3763 33.9449 42.5266C34.3396 40.6802 35.0286 39.0948 36.0087 37.7736C36.9887 36.4523 38.2999 35.4355 39.9422 34.7197C41.5846 34.0039 43.6115 33.646 46.0232 33.646C48.1739 33.646 50.0303 33.9002 51.5957 34.4086C53.1611 34.917 54.4623 35.7098 55.4992 36.7835C56.5361 37.8572 57.2987 39.2353 57.7904 40.9144C58.2788 42.5935 58.5263 44.5837 58.5263 46.885V62.7831H53.2648L53.2682 62.7798Z" fill="#E8E6E3"/>
<path d="M65.8344 37.3287C68.3263 34.8736 72.1528 33.646 77.3173 33.646C82.4818 33.646 86.3183 34.8736 88.827 37.3287C91.3356 39.7838 92.5899 43.4097 92.5899 48.2062C92.5899 53.0027 91.3356 56.6319 88.827 59.0837C86.3183 61.5388 82.4818 62.7664 77.3173 62.7664C72.1528 62.7664 68.3229 61.5388 65.8344 59.0837C63.3424 56.6286 62.0981 53.0027 62.0981 48.2062C62.0981 43.4097 63.3424 39.7805 65.8344 37.3287ZM69.9017 55.4612C71.5139 57.1102 73.9858 57.9331 77.3206 57.9331C80.6555 57.9331 83.134 57.1102 84.7663 55.4612C86.3953 53.8122 87.2114 51.3939 87.2114 48.2095C87.2114 45.0252 86.3953 42.6069 84.7663 40.9579C83.1374 39.3089 80.6555 38.486 77.3206 38.486C73.9858 38.486 71.4236 39.3089 69.8482 40.9579C68.2728 42.6069 67.4867 45.0252 67.4867 48.2095C67.4867 51.3939 68.2928 53.8155 69.9051 55.4612H69.9017Z" fill="#E8E6E3"/>
<path d="M92.5073 33.6489H98.508L109.345 62.776H103.402L92.5073 33.6489ZM103.402 62.7794L114.239 33.6523H120.24L109.345 62.7794H103.402ZM114.239 33.6489H120.24L131.134 62.776H125.133L114.239 33.6489ZM125.13 62.7794L136.024 33.6523H141.968L131.13 62.7794H125.13Z" fill="#E8E6E3"/>
</g>
<defs>
<clipPath id="clip0_584_3584">
<rect width="141.668" height="62.7798" fill="white" transform="translate(0.298828)"/>
</clipPath>
</defs>
</svg>
